PathFileType	4	(X/Y/Z)	s02c0401.trc
DataRate	CameraRate	NumFrames	NumMarkers	Units	OrigDataRate	OrigDataStartFrame	OrigNumFrames
200	200	4	50	mm	200	0	2000
Frame#	Time	racr			lacr			c7			jug			rlel			rdr			llel			ldr			s2			lic			ric			lasi			rasi			rpsi			lpsi			rgt			lgt			rth1			rth2			rth3			rth4			rlfc			rmfc			rsh1			rsh2			rsh3			rsh4			rlmal			rmmal			rtoe			rmt5			rmt1			lth1			lth2			lth4			lth3			llfc			lmfc			lsh1			lsh2			lsh3			lsh4			llmal			lmmal			lcal			ltoe			lmt5			SBIKE			LBIKE			RBIKE			
		X1	Y1	Z1	X2	Y2	Z2	X3	Y3	Z3	X4	Y4	Z4	X5	Y5	Z5	X6	Y6	Z6	X7	Y7	Z7	X8	Y8	Z8	X9	Y9	Z9	X10	Y10	Z10	X11	Y11	Z11	X12	Y12	Z12	X13	Y13	Z13	X14	Y14	Z14	X15	Y15	Z15	X16	Y16	Z16	X17	Y17	Z17	X18	Y18	Z18	X19	Y19	Z19	X20	Y20	Z20	X21	Y21	Z21	X22	Y22	Z22	X23	Y23	Z23	X24	Y24	Z24	X25	Y25	Z25	X26	Y26	Z26	X27	Y27	Z27	X28	Y28	Z28	X29	Y29	Z29	X30	Y30	Z30	X31	Y31	Z31	X32	Y32	Z32	X33	Y33	Z33	X34	Y34	Z34	X35	Y35	Z35	X36	Y36	Z36	X37	Y37	Z37	X38	Y38	Z38	X39	Y39	Z39	X40	Y40	Z40	X41	Y41	Z41	X42	Y42	Z42	X43	Y43	Z43	X44	Y44	Z44	X45	Y45	Z45	X46	Y46	Z46	X47	Y47	Z47	X48	Y48	Z48	X49	Y49	Z49	X50	Y50	Z50	
0	0.0000	469.931169	1320.568677	-152.523567	473.061898	1325.180411	-499.831528	476.034997	1362.828731	-332.311180	432.993289	1233.727893	-331.980028	590.496015	1073.071257	-136.220170	716.189691	882.249678	-136.860887	569.573093	1064.778225	-534.235203	702.941140	880.021328	-517.139600	-0.165510	1090.905998	-325.857445	142.723265	1096.637547	-465.555669	127.894439	1113.520254	-189.395806	191.196238	1066.807386	-441.409339	177.733261	1082.843175	-208.522023	15.045549	1132.007948	-285.584935	20.422864	1134.107388	-367.184602	112.578227	1034.194624	-141.755644	91.032919	996.866075	-496.092459	198.706518	1012.807231	-138.312277	286.650299	1007.025292	-145.526663	360.408005	970.536186	-120.233400	295.004108	1029.454483	-174.982951	484.849706	886.696723	-150.445091	480.706685	866.946670	-264.041934	462.177745	775.365474	-136.570596	436.128108	693.656670	-156.460452	377.595135	628.696203	-150.492089	446.525516	689.313113	-194.346894	307.351818	531.386410	-156.777750	314.900687	550.767499	-236.669682	516.636348	473.793697	-194.315207	408.356451	457.426240	-136.259537	434.858965	471.016014	-243.952893	189.711389	896.164508	-515.516143	253.968315	837.984640	-516.266652	282.652038	855.392956	-500.031280	278.664877	752.079090	-516.400491	329.461283	664.118744	-496.311008	338.511678	634.523615	-394.470713	280.495468	570.805811	-513.335085	255.829712	489.536396	-495.705909	190.134877	427.677591	-493.931109	276.146589	482.121630	-460.984208	124.559062	347.132712	-473.960743	143.448504	336.531827	-397.614395	48.115686	333.159344	-431.930317	282.815812	168.826760	-445.873213	179.014992	205.400603	-503.068547	-165.328594	858.139318	-315.282963	33.128376	82.102471	-515.412636	33.540934	81.510528	-115.110380	
1	0.0050	469.899929	1320.543846	-152.500749	473.042235	1325.162398	-499.839693	476.031358	1362.812336	-332.301183	432.972990	1233.726148	-331.969859	590.481027	1073.077143	-136.231384	716.190528	882.263026	-136.855864	569.542593	1064.756147	-534.218764	702.939589	880.005252	-517.142411	-0.165212	1090.925607	-325.862649	142.691653	1096.644418	-465.565956	127.899478	1113.522318	-189.397133	191.176477	1066.775465	-441.402034	177.748515	1082.863449	-208.535311	15.047284	1132.002742	-285.579779	20.387805	1134.132469	-367.206763	112.587629	1034.188990	-141.772279	90.991503	996.868704	-496.099178	198.737274	1012.792153	-138.327077	286.646686	1007.029521	-145.517298	360.425131	970.540129	-120.236342	295.021270	1029.459254	-174.981688	484.858562	886.666640	-150.429775	480.695352	866.958376	-264.021823	462.180746	775.375920	-136.569558	436.114487	693.645676	-156.475899	377.571184	628.695049	-150.491432	446.518407	689.327670	-194.328873	307.341455	531.401589	-156.787099	314.896225	550.761544	-236.695490	516.615205	473.805513	-194.318224	408.350392	457.454481	-136.268865	434.846826	471.047209	-243.973853	189.693087	896.132097	-515.545164	253.927118	837.974452	-516.280559	282.622323	855.367027	-500.030013	278.621599	752.061084	-516.429421	329.410470	664.135983	-496.300618	338.481471	634.512911	-394.502258	280.455463	570.802977	-513.330996	255.802288	489.517763	-495.711621	190.125145	427.653901	-493.946605	276.130212	482.114106	-460.993496	124.545609	347.114043	-473.970633	143.414152	336.547629	-397.607918	48.114754	333.143643	-431.939271	282.826398	168.827247	-445.898639	179.031259	205.406494	-503.070201	-165.183388	858.224871	-315.646159	33.132063	82.094572	-515.440007	33.540919	81.523145	-115.096127	
2	0.0100	469.882480	1320.539580	-152.485549	473.033709	1325.150089	-499.851724	476.028097	1362.808588	-332.311378	432.972160	1233.740483	-331.963564	590.443660	1073.071700	-136.254382	716.191244	882.257884	-136.872025	569.531744	1064.755002	-534.209750	702.935294	879.988140	-517.144946	-0.186201	1090.932324	-325.847816	142.672509	1096.657637	-465.561785	127.906744	1113.536205	-189.400563	191.139701	1066.786221	-441.414873	177.764048	1082.864183	-208.563940	15.035003	1132.023173	-285.560040	20.403120	1134.147686	-367.226159	112.599300	1034.191490	-141.765350	90.958420	996.868319	-496.079695	198.727224	1012.793729	-138.321145	286.648907	1007.020023	-145.507303	360.422727	970.537724	-120.224795	295.034766	1029.443241	-174.984247	484.864277	886.664664	-150.418072	480.695949	866.945363	-264.023229	462.186368	775.365917	-136.554353	436.093786	693.629003	-156.462626	377.535776	628.695774	-150.492296	446.510153	689.329943	-194.312707	307.308006	531.403937	-156.783720	314.860110	550.768977	-236.689812	516.580792	473.836314	-194.317169	408.325495	457.471024	-136.254128	434.812786	471.055008	-243.975398	189.655353	896.120776	-515.541450	253.895565	837.963745	-516.298083	282.585071	855.365971	-500.053827	278.583504	752.046580	-516.433948	329.387044	664.128092	-496.309874	338.456379	634.529413	-394.492447	280.430032	570.800833	-513.353559	255.790148	489.510569	-495.725069	190.120787	427.648429	-493.944080	276.126403	482.109259	-460.996383	124.562030	347.104250	-473.973895	143.421760	336.531268	-397.619137	48.125385	333.134183	-431.946424	282.841528	168.819611	-445.895835	179.052422	205.400070	-503.070266	-165.184860	858.160083	-315.700168	33.156576	82.045262	-515.468183	33.546400	81.515950	-115.084531	
3	0.0150	469.873135	1320.530876	-152.489851	473.028572	1325.124538	-499.856225	476.035331	1362.779264	-332.314610	432.952617	1233.706384	-331.939670	590.718482	1072.888799	-136.591151	716.194863	882.268766	-136.877169	569.667368	1064.818387	-533.845206	702.923352	879.989443	-517.149677	-0.258849	1091.028636	-326.382320	142.689677	1096.413611	-465.606044	127.896613	1113.540068	-189.405774	191.104012	1066.804808	-441.439843	177.765241	1082.880071	-208.590560	15.441001	1131.942428	-285.696683	22.392820	1135.102105	-371.794543	112.598918	1034.194434	-141.763678	90.919619	997.023345	-496.058425	198.731504	1012.785423	-138.336218	286.644775	1007.012473	-145.505113	360.423190	970.518412	-120.220454	295.386572	1029.120682	-174.860155	484.960574	886.605513	-150.491107	480.697800	866.931377	-264.024378	462.156700	775.361061	-136.565587	433.860712	691.436661	-157.742899	377.531809	628.694067	-150.499374	445.602571	688.862425	-194.650610	307.014444	532.085564	-156.251156	314.681050	550.761606	-237.020276	516.640227	473.799110	-194.425768	408.297938	457.493058	-136.268560	434.772951	471.075442	-243.955256	189.613524	896.123213	-515.541968	253.908680	837.675491	-515.964161	282.554104	855.690870	-500.348750	278.442373	751.920872	-516.459972	329.546706	663.986141	-496.466725	338.035717	634.708697	-394.287445	280.420139	570.826797	-513.372372	255.907357	489.520868	-496.026593	190.143317	427.633486	-493.971675	276.147853	482.051700	-460.946271	124.603889	347.074091	-473.989196	143.459455	336.519967	-397.609444	48.166326	333.132164	-431.954295	282.864435	168.781837	-445.896841	179.075682	205.365777	-503.080033	-165.156278	858.157478	-315.719525	33.132258	82.079930	-515.435735	33.551391	81.502946	-115.112931	
